# xmcd
#
# Track frame offsets:
#	150
#	13745
#	36450
#	47910
#	71862
#	86605
#	100737
#	114435
#	132215
#	147475
#	164087
#	178765
#
# Disc length: 2551 seconds
#
# Revision: 0
# Processed by: cddbd v1.5.2PL0 Copyright (c) Steve Scherf et al.
# Submitted via: dBpowerAMP V4.0
#
DISCID=b209f50c
DTITLE=Dave Evans - Pretty Green Hills
DYEAR=1900
DGENRE=Bluegrass
TTITLE0=Our Last Goodby
TTITLE1=Pretty Green Hills
TTITLE2=Little Willie
TTITLE3=Should I Go, Should I Stay
TTITLE4=Down and Out Again
TTITLE5=Sea of Regret
TTITLE6=Soldier's Joy
TTITLE7=East Virginia Blues
TTITLE8=The Year That Clayton Delaney Died
TTITLE9=Lonesome Whistle
TTITLE10=Head Over Heels
TTITLE11=Cora Is Gone
EXTD=
EXTT0=
EXTT1=
EXTT2=
EXTT3=
EXTT4=
EXTT5=
EXTT6=
EXTT7=
EXTT8=
EXTT9=
EXTT10=
EXTT11=
PLAYORDER=
